<svg width="112" height="76" viewBox="0 0 112 76" fill="none" xmlns="http://www.w3.org/2000/svg">
<path d="M26.8608 26.9091V56H21.5483L8.89205 37.6903H8.67898V56H2.52841V26.9091H7.92614L20.483 45.2045H20.7386V26.9091H26.8608ZM58.6754 41.4545C58.6754 44.6269 58.0741 47.3258 56.8714 49.5511C55.6783 51.7765 54.0495 53.4763 51.9851 54.6506C49.9302 55.8153 47.6196 56.3977 45.0533 56.3977C42.468 56.3977 40.148 55.8106 38.093 54.6364C36.0381 53.4621 34.4141 51.7623 33.2209 49.5369C32.0277 47.3116 31.4311 44.6174 31.4311 41.4545C31.4311 38.2822 32.0277 35.5833 33.2209 33.358C34.4141 31.1326 36.0381 29.4375 38.093 28.2727C40.148 27.0985 42.468 26.5114 45.0533 26.5114C47.6196 26.5114 49.9302 27.0985 51.9851 28.2727C54.0495 29.4375 55.6783 31.1326 56.8714 33.358C58.0741 35.5833 58.6754 38.2822 58.6754 41.4545ZM52.4396 41.4545C52.4396 39.3996 52.1319 37.6667 51.5163 36.2557C50.9103 34.8447 50.0533 33.7746 48.9453 33.0455C47.8374 32.3163 46.54 31.9517 45.0533 31.9517C43.5665 31.9517 42.2692 32.3163 41.1612 33.0455C40.0533 33.7746 39.1915 34.8447 38.576 36.2557C37.9699 37.6667 37.6669 39.3996 37.6669 41.4545C37.6669 43.5095 37.9699 45.2424 38.576 46.6534C39.1915 48.0644 40.0533 49.1345 41.1612 49.8636C42.2692 50.5928 43.5665 50.9574 45.0533 50.9574C46.54 50.9574 47.8374 50.5928 48.9453 49.8636C50.0533 49.1345 50.9103 48.0644 51.5163 46.6534C52.1319 45.2424 52.4396 43.5095 52.4396 41.4545ZM60.7955 31.9801V26.9091H84.6875V31.9801H75.7812V56H69.7017V31.9801H60.7955ZM88.6222 56V26.9091H108.224V31.9801H94.7727V38.9119H107.216V43.983H94.7727V50.929H108.281V56H88.6222Z" fill="white"/>
<path d="M2.56761 24V5.96364H9.68352C11.0456 5.96364 12.2081 6.20729 13.171 6.6946C14.1398 7.17604 14.8766 7.86004 15.3815 8.74659C15.8923 9.62727 16.1477 10.6635 16.1477 11.8554C16.1477 13.0531 15.8894 14.0835 15.3727 14.9466C14.8561 15.8038 14.1075 16.4614 13.127 16.9193C12.1524 17.3773 10.9723 17.6063 9.58665 17.6063H4.82216V14.5415H8.97017C9.6982 14.5415 10.3029 14.4417 10.7844 14.242C11.2658 14.0424 11.624 13.743 11.8588 13.3438C12.0995 12.9445 12.2199 12.4484 12.2199 11.8554C12.2199 11.2565 12.0995 10.7516 11.8588 10.3406C11.624 9.92964 11.2629 9.61847 10.7756 9.4071C10.2941 9.18987 9.68646 9.08125 8.95256 9.08125H6.38097V24H2.56761ZM12.308 15.792L16.7906 24H12.581L8.19517 15.792H12.308ZM24.5825 24V5.96364H36.7359V9.10767H28.3958V13.4054H36.1106V16.5494H28.3958V20.856H36.7711V24H24.5825ZM48.6163 24H44.5299L50.7563 5.96364H55.6705L61.8881 24H57.8018L53.2839 10.0852H53.143L48.6163 24ZM48.3609 16.9105H58.0131V19.8872H48.3609V16.9105ZM85.7128 12.2781H81.8554C81.7849 11.7791 81.6411 11.3358 81.4239 10.9483C81.2066 10.5549 80.9277 10.2203 80.5872 9.94432C80.2467 9.66837 79.8533 9.45701 79.4071 9.31023C78.9668 9.16345 78.4883 9.09006 77.9716 9.09006C77.0381 9.09006 76.2249 9.32197 75.5321 9.7858C74.8393 10.2437 74.3021 10.9131 73.9205 11.7938C73.5388 12.6686 73.348 13.7312 73.348 14.9818C73.348 16.2676 73.5388 17.3479 73.9205 18.2227C74.308 19.0975 74.8481 19.758 75.5409 20.2043C76.2337 20.6505 77.0351 20.8736 77.9452 20.8736C78.456 20.8736 78.9286 20.8061 79.3631 20.671C79.8034 20.536 80.1938 20.3393 80.5344 20.081C80.8749 19.8168 81.1567 19.4968 81.3798 19.121C81.6088 18.7453 81.7673 18.3167 81.8554 17.8352L85.7128 17.8528C85.613 18.6807 85.3634 19.4792 84.9642 20.2483C84.5708 21.0116 84.0395 21.6955 83.3702 22.3003C82.7067 22.8991 81.9141 23.3747 80.9923 23.727C80.0764 24.0734 79.0401 24.2466 77.8835 24.2466C76.2748 24.2466 74.8364 23.8826 73.5682 23.1545C72.3059 22.4265 71.3078 21.3726 70.5739 19.9929C69.8458 18.6132 69.4818 16.9428 69.4818 14.9818C69.4818 13.015 69.8517 11.3417 70.5915 9.96193C71.3312 8.5822 72.3352 7.53125 73.6034 6.80909C74.8716 6.08106 76.2983 5.71705 77.8835 5.71705C78.9286 5.71705 79.8973 5.86383 80.7898 6.15739C81.6881 6.45095 82.4836 6.87955 83.1764 7.44318C83.8692 8.00095 84.4329 8.68494 84.8673 9.49517C85.3077 10.3054 85.5895 11.233 85.7128 12.2781ZM93.5002 9.10767V5.96364H108.313V9.10767H102.791V24H99.0221V9.10767H93.5002Z" fill="white"/>
<path d="M2.52014 72V59.7236H7.43548C8.33862 59.7236 9.09191 59.8575 9.69533 60.1253C10.2988 60.393 10.7523 60.7647 11.056 61.2402C11.3598 61.7118 11.5116 62.2552 11.5116 62.8707C11.5116 63.3502 11.4157 63.7718 11.2239 64.1355C11.0321 64.4951 10.7683 64.7908 10.4326 65.0226C10.101 65.2504 9.72131 65.4122 9.29372 65.5082V65.628C9.76127 65.648 10.1989 65.7799 10.6065 66.0237C11.0181 66.2674 11.3518 66.6091 11.6075 67.0487C11.8633 67.4843 11.9912 68.0038 11.9912 68.6072C11.9912 69.2586 11.8293 69.84 11.5056 70.3516C11.1859 70.8591 10.7124 71.2607 10.085 71.5564C9.45756 71.8521 8.68429 72 7.76516 72H2.52014ZM5.11568 69.878H7.23167C7.95498 69.878 8.48248 69.7401 8.81417 69.4644C9.14586 69.1847 9.3117 68.813 9.3117 68.3495C9.3117 68.0098 9.22978 67.7101 9.06593 67.4503C8.90209 67.1906 8.66831 66.9868 8.3646 66.8389C8.06488 66.691 7.70722 66.6171 7.29161 66.6171H5.11568V69.878ZM5.11568 64.8608H7.03985C7.39552 64.8608 7.71122 64.7988 7.98695 64.6749C8.26669 64.5471 8.48648 64.3672 8.64633 64.1355C8.81017 63.9037 8.8921 63.6259 8.8921 63.3022C8.8921 62.8587 8.73425 62.501 8.41855 62.2293C8.10684 61.9575 7.66326 61.8216 7.08781 61.8216H5.11568V64.8608ZM12.6231 59.7236H15.5304L18.3297 65.0106H18.4496L21.249 59.7236H24.1562L19.6785 67.6601V72H17.1009V67.6601L12.6231 59.7236ZM39.6372 64.0216H37.0117C36.9637 63.6819 36.8658 63.3802 36.718 63.1164C36.5701 62.8487 36.3803 62.6209 36.1485 62.4331C35.9167 62.2452 35.649 62.1014 35.3453 62.0015C35.0455 61.9016 34.7199 61.8516 34.3682 61.8516C33.7328 61.8516 33.1793 62.0095 32.7078 62.3252C32.2362 62.6369 31.8706 63.0924 31.6108 63.6919C31.351 64.2873 31.2212 65.0106 31.2212 65.8618C31.2212 66.737 31.351 67.4723 31.6108 68.0677C31.8746 68.6632 32.2422 69.1127 32.7138 69.4164C33.1853 69.7202 33.7308 69.872 34.3502 69.872C34.6979 69.872 35.0196 69.8261 35.3153 69.7341C35.615 69.6422 35.8808 69.5084 36.1125 69.3325C36.3443 69.1527 36.5361 68.9349 36.688 68.6791C36.8438 68.4234 36.9517 68.1317 37.0117 67.804L39.6372 67.816C39.5693 68.3794 39.3994 68.9229 39.1277 69.4464C38.8599 69.9659 38.4983 70.4315 38.0427 70.8431C37.5911 71.2507 37.0516 71.5744 36.4242 71.8142C35.8008 72.05 35.0955 72.1678 34.3082 72.1678C33.2133 72.1678 32.2342 71.9201 31.371 71.4245C30.5118 70.929 29.8325 70.2117 29.333 69.2726C28.8374 68.3335 28.5897 67.1966 28.5897 65.8618C28.5897 64.5231 28.8414 63.3842 29.3449 62.4451C29.8485 61.5059 30.5318 60.7906 31.395 60.2991C32.2582 59.8036 33.2293 59.5558 34.3082 59.5558C35.0196 59.5558 35.6789 59.6557 36.2864 59.8555C36.8978 60.0553 37.4393 60.347 37.9108 60.7307C38.3824 61.1103 38.766 61.5759 39.0617 62.1274C39.3615 62.6788 39.5533 63.3102 39.6372 64.0216ZM43.046 72H40.2647L44.5027 59.7236H47.8475L52.0795 72H49.2981L46.223 62.529H46.1271L43.046 72ZM42.8722 67.1746H49.442V69.2007H42.8722V67.1746ZM51.2518 61.8636V59.7236H61.3343V61.8636H57.5758V72H55.0103V61.8636H51.2518ZM63.273 72H60.4917L64.7296 59.7236H68.0745L72.3065 72H69.5251L66.45 62.529H66.3541L63.273 72ZM63.0992 67.1746H69.669V69.2007H63.0992V67.1746ZM75.5625 72H72.7811L77.0191 59.7236H80.3639L84.5959 72H81.8145L78.7395 62.529H78.6435L75.5625 72ZM75.3886 67.1746H81.9584V69.2007H75.3886V67.1746ZM90.0878 72H85.7359V59.7236H90.1237C91.3586 59.7236 92.4216 59.9694 93.3127 60.4609C94.2039 60.9485 94.8892 61.6498 95.3688 62.5649C95.8523 63.4801 96.0941 64.575 96.0941 65.8498C96.0941 67.1286 95.8523 68.2276 95.3688 69.1467C94.8892 70.0658 94.1999 70.7712 93.3007 71.2627C92.4056 71.7542 91.3346 72 90.0878 72ZM88.3314 69.7761H89.9799C90.7471 69.7761 91.3925 69.6402 91.916 69.3685C92.4435 69.0928 92.8392 68.6672 93.1029 68.0917C93.3707 67.5123 93.5045 66.765 93.5045 65.8498C93.5045 64.9427 93.3707 64.2014 93.1029 63.6259C92.8392 63.0505 92.4455 62.6269 91.922 62.3551C91.3985 62.0834 90.7531 61.9475 89.9859 61.9475H88.3314V69.7761ZM99.2047 59.7236L102.172 69.0508H102.286L105.259 59.7236H108.136L103.904 72H100.559L96.3214 59.7236H99.2047Z" fill="white"/>
</svg>
